<svg width="32" height="32" viewBox="0 0 32 32" fill="none" xmlns="http://www.w3.org/2000/svg">
<path fill-rule="evenodd" clip-rule="evenodd" d="M2.21213 16.2122C2.09497 16.095 2.09497 15.9051 2.21213 15.7879L6.60038 11.3997C6.71754 11.2825 6.90749 11.2825 7.02464 11.3997L11.1004 15.4754C11.2175 15.5926 11.4075 15.5926 11.5246 15.4754L15.4754 11.5246C15.5925 11.4075 15.5925 11.2175 15.4754 11.1004L11.3997 7.02469C11.2825 6.90753 11.2825 6.71758 11.3997 6.60042L15.7879 2.21217C15.9051 2.09502 16.095 2.09502 16.2122 2.21217L20.6005 6.60042C20.7176 6.71758 20.7176 6.90753 20.6005 7.02469L16.5247 11.1004C16.4075 11.2176 16.4075 11.4076 16.5247 11.5247L20.4754 15.4754C20.5925 15.5926 20.7825 15.5926 20.8997 15.4754L24.9754 11.3997C25.0925 11.2825 25.2825 11.2825 25.3996 11.3997L29.7879 15.7879C29.905 15.9051 29.905 16.095 29.7879 16.2122L25.3996 20.6004C25.2825 20.7176 25.0925 20.7176 24.9754 20.6004L20.8997 16.5248C20.7826 16.4076 20.5926 16.4076 20.4755 16.5248L16.5248 20.4755C16.4076 20.5926 16.4076 20.7826 16.5248 20.8997L20.6005 24.9754C20.7176 25.0926 20.7176 25.2825 20.6005 25.3997L16.2122 29.7879C16.095 29.9051 15.9051 29.9051 15.7879 29.7879L11.3997 25.3997C11.2825 25.2825 11.2825 25.0926 11.3997 24.9754L15.4755 20.8997C15.5926 20.7825 15.5926 20.5926 15.4755 20.4754L11.5247 16.5247C11.4075 16.4075 11.2176 16.4075 11.1004 16.5247L7.02464 20.6004C6.90749 20.7176 6.71754 20.7176 6.60038 20.6004L2.21213 16.2122Z" fill="#CEF72E"/>
</svg>
